<svg width="101" height="65" viewBox="0 0 101 65" fill="none" xmlns="http://www.w3.org/2000/svg">
<path d="M6.11401 16.8487C6.00942 16.9004 5.90847 16.9521 5.82659 17.0131C5.74458 17.0745 5.68705 17.1442 5.66017 17.227C5.63329 17.3097 5.63885 17.3999 5.66911 17.4978C5.69952 17.5953 5.75086 17.6964 5.80506 17.7998C5.80506 17.7998 5.80506 17.7998 5.80506 17.7998C6.64718 19.3701 7.50835 20.8818 8.38858 22.3348C16.3106 35.4122 25.7759 43.739 36.7845 47.3151C47.793 50.8913 60.3448 49.7168 74.4398 43.7917C76.006 43.1334 77.5911 42.4164 79.1953 41.6407C79.2999 41.589 79.4009 41.5373 79.4828 41.4764C79.5648 41.4149 79.6223 41.3452 79.6492 41.2625C79.6761 41.1797 79.6705 41.0895 79.6403 40.9916C79.6098 40.8941 79.5585 40.793 79.5043 40.6897C78.6622 39.1193 77.801 37.6076 76.9208 36.1546C68.9987 23.0772 59.5334 14.7504 48.5249 11.1743C37.5164 7.59813 24.9646 8.7726 10.8695 14.6977C9.3034 15.356 7.71824 16.073 6.11401 16.8487Z" fill="#303030"/>
<path d="M78.7963 41.0037C79.0137 41.2564 79.2311 41.509 79.4485 41.7617C80.0129 41.7915 80.568 41.8107 81.1141 41.8193C86.8124 41.9087 91.515 40.8408 95.2219 38.6155C97.9085 37.0027 99.6624 34.3058 100.484 30.5247C100.592 30.0248 100.684 29.506 100.76 28.9682C100.543 28.7155 100.325 28.4628 100.108 28.2102C99.4736 28.0988 98.8555 28.0065 98.2536 27.933C93.7014 27.3776 90.0819 27.9063 87.3953 29.5191C83.6884 31.7443 80.9773 35.1269 79.262 39.6668C79.0976 40.1018 78.9424 40.5474 78.7963 41.0037Z" fill="#303030"/>
<path d="M78.4754 41.9917C78.7998 41.9151 79.1242 41.8384 79.4485 41.7617C79.9226 42.0692 80.3831 42.38 80.8299 42.6939C85.4929 45.9705 88.6702 49.5982 90.3616 53.577C91.5875 56.4609 91.4216 59.6737 89.8639 63.2154C89.6579 63.6837 89.4276 64.1577 89.1731 64.6374C88.8487 64.7141 88.5243 64.7908 88.1999 64.8674C87.6211 64.5847 87.0667 64.2961 86.5366 64.0019C82.527 61.776 79.9093 59.2211 78.6833 56.3373C76.9919 52.3584 76.7863 48.0283 78.0664 43.3471C78.1891 42.8985 78.3254 42.4467 78.4754 41.9917Z" fill="#303030"/>
</svg>
