<svg width="119" height="81" viewBox="0 0 119 81" fill="none" xmlns="http://www.w3.org/2000/svg">
<path d="M115.211 27.479C115.251 27.5932 115.289 27.702 115.314 27.7929C115.339 27.8848 115.347 27.9586 115.328 28.0279C115.31 28.0972 115.266 28.1571 115.198 28.2243C115.131 28.2904 115.044 28.3657 114.952 28.4449C113.812 29.4161 112.687 30.3277 111.578 31.1798C101.599 38.8484 92.9135 41.6922 85.5204 39.7112C78.1273 37.7302 72.0269 30.9245 67.2194 19.2939C66.6852 18.0016 66.167 16.6497 65.6648 15.2383C65.6254 15.1241 65.5874 15.0153 65.5622 14.9244C65.5373 14.8324 65.5293 14.7587 65.5478 14.6894C65.5664 14.6201 65.6103 14.5602 65.6778 14.493C65.745 14.4269 65.8324 14.3516 65.9236 14.2724C67.0643 13.3012 68.189 12.3896 69.2977 11.5375C79.2765 3.86889 87.9624 1.02507 95.3555 3.00605C102.749 4.98703 108.849 11.7928 113.656 23.4234C114.191 24.7157 114.709 26.0675 115.211 27.479Z" fill="#303030"/>
<path d="M66.4846 14.7697C66.1647 14.8632 65.8448 14.9568 65.5248 15.0503C65.0969 14.8941 64.6824 14.734 64.2813 14.5699C60.0961 12.8576 57.3762 10.717 56.1217 8.148C55.2125 6.28603 55.676 4.02279 57.5122 1.35827C57.755 1.006 58.0217 0.646722 58.3125 0.280427C58.6324 0.186901 58.9524 0.0933752 59.2723 -0.000150724C59.8035 0.125884 60.3106 0.25893 60.7938 0.398993C64.4485 1.45841 66.7305 2.9191 67.6397 4.78107C68.8942 7.35006 68.6832 10.3474 67.0069 13.7731C66.8463 14.1014 66.6722 14.4336 66.4846 14.7697Z" fill="#303030"/>
<path d="M66.2158 15.7732C65.9855 15.5322 65.7551 15.2913 65.5248 15.0503C65.0761 14.9716 64.6371 14.903 64.2077 14.8446C59.727 14.2348 56.3012 14.7287 53.9303 16.3263C52.2119 17.4842 51.4817 19.676 51.7397 22.9016C51.7738 23.3281 51.8252 23.7726 51.8938 24.2352C52.1241 24.4762 52.3545 24.7171 52.5848 24.9581C53.1078 25.1145 53.6135 25.2529 54.102 25.3732C57.7968 26.2831 60.5033 26.159 62.2217 25.0011C64.5926 23.4036 65.9086 20.7023 66.1698 16.8974C66.1948 16.5328 66.2101 16.1581 66.2158 15.7732Z" fill="#303030"/>
<path d="M60.3205 69.2809C60.329 69.4014 60.3375 69.5164 60.3383 69.6107C60.3386 69.7059 60.3272 69.7793 60.2914 69.8414C60.2555 69.9035 60.1976 69.95 60.115 69.9974C60.033 70.0439 59.9291 70.094 59.8205 70.1469C58.4673 70.7898 57.145 71.3792 55.8535 71.9153C44.23 76.7399 35.104 77.2388 28.4755 73.4118C21.847 69.5848 17.716 61.4321 16.0825 48.9535C15.901 47.567 15.7503 46.1271 15.6305 44.6338C15.622 44.5133 15.6134 44.3983 15.6127 44.304C15.6124 44.2087 15.6237 44.1354 15.6596 44.0732C15.6955 44.0111 15.7534 43.9646 15.836 43.9172C15.918 43.8707 16.0219 43.8206 16.1305 43.7678C17.4837 43.1249 18.806 42.5354 20.0975 41.9993C31.721 37.1747 40.847 36.6759 47.4755 40.5028C54.104 44.3298 58.235 52.4826 59.8685 64.9611C60.05 66.3476 60.2006 67.7875 60.3205 69.2809Z" fill="#303030"/>
<path d="M16.5436 44.3929C16.2104 44.4005 15.8771 44.408 15.5439 44.4155C15.1709 44.1539 14.812 43.8919 14.4671 43.6296C10.8676 40.8925 8.79442 38.1209 8.2476 35.3147C7.85126 33.2809 8.88475 31.2147 11.348 29.1162C11.6737 28.8388 12.0244 28.5608 12.4 28.2822C12.7333 28.2747 13.0665 28.2672 13.3997 28.2596C13.8802 28.5189 14.3356 28.7786 14.7661 29.039C18.0221 31.0082 19.8482 33.0097 20.2445 35.0436C20.7914 37.8497 19.8118 40.6904 17.306 43.5655C17.0659 43.841 16.8117 44.1168 16.5436 44.3929Z" fill="#303030"/>
<path d="M16.0242 45.2926C15.8641 45.0003 15.704 44.7079 15.5439 44.4155C15.1308 44.2234 14.7245 44.0435 14.3249 43.876C10.1547 42.1273 6.7178 41.7177 4.0142 42.6472C2.05467 43.3209 0.782062 45.249 0.196374 48.4315C0.118941 48.8522 0.0535185 49.2949 9.87552e-05 49.7595C0.1602 50.0519 0.320302 50.3442 0.480404 50.6366C0.945111 50.9231 1.39781 51.1876 1.8385 51.4302C5.17188 53.2654 7.81833 53.8461 9.77786 53.1724C12.4815 52.2429 14.4518 49.9743 15.6888 46.3666C15.8073 46.0209 15.9191 45.6629 16.0242 45.2926Z" fill="#303030"/>
</svg>
