<svg width="203" height="190" viewBox="0 0 203 190" fill="none" xmlns="http://www.w3.org/2000/svg">
<path d="M141.613 160.854C141.622 160.975 141.63 161.09 141.642 161.183C141.656 161.278 141.677 161.349 141.721 161.405C141.766 161.462 141.83 161.499 141.918 161.535C142.006 161.569 142.116 161.604 142.231 161.641C143.661 162.086 145.054 162.483 146.408 162.831C158.597 165.964 167.701 165.169 173.723 160.443C179.744 155.718 182.681 147.063 182.535 134.479C182.518 133.081 182.464 131.634 182.372 130.139C182.363 130.018 182.355 129.903 182.343 129.81C182.329 129.715 182.308 129.644 182.263 129.588C182.219 129.531 182.155 129.494 182.067 129.458C181.979 129.424 181.869 129.389 181.754 129.352C180.324 128.907 178.931 128.51 177.577 128.162C165.388 125.029 156.283 125.824 150.262 130.55C144.241 135.275 141.304 143.93 141.45 156.514C141.467 157.912 141.521 159.359 141.613 160.854Z" fill="#303030"/>
<path d="M181.434 130.03C181.765 129.99 182.096 129.95 182.427 129.911C182.759 129.599 183.077 129.289 183.381 128.981C186.558 125.762 188.219 122.725 188.363 119.87C188.468 117.801 187.153 115.901 184.418 114.172C184.056 113.943 183.67 113.718 183.259 113.495C182.928 113.535 182.597 113.574 182.266 113.614C181.827 113.939 181.413 114.26 181.023 114.579C178.078 116.988 176.553 119.228 176.449 121.297C176.304 124.152 177.675 126.826 180.562 129.318C180.839 129.557 181.129 129.794 181.434 130.03Z" fill="#303030"/>
<path d="M182.075 130.847C182.192 130.535 182.309 130.223 182.427 129.911C182.808 129.662 183.185 129.427 183.557 129.204C187.438 126.884 190.783 125.993 193.591 126.531C195.626 126.921 197.158 128.65 198.188 131.717C198.324 132.123 198.451 132.552 198.57 133.004C198.452 133.316 198.335 133.628 198.218 133.94C197.798 134.29 197.388 134.616 196.986 134.918C193.945 137.206 191.407 138.155 189.372 137.765C186.564 137.227 184.293 135.259 182.559 131.863C182.393 131.537 182.231 131.199 182.075 130.847Z" fill="#303030"/>
<path d="M17.2296 100.644C17.2465 100.764 17.2624 100.878 17.2814 100.971C17.3012 101.064 17.3276 101.133 17.3758 101.186C17.4239 101.24 17.4902 101.273 17.5809 101.302C17.6709 101.33 17.783 101.357 17.9003 101.386C19.3583 101.73 20.775 102.029 22.1503 102.282C34.5278 104.557 43.555 103.128 49.2318 97.9945C54.9087 92.8606 57.2351 84.022 56.2111 71.4787C56.0974 70.085 55.9422 68.6456 55.7457 67.1604C55.7288 67.0408 55.713 66.9266 55.6939 66.8342C55.6741 66.7411 55.6477 66.6717 55.5995 66.6185C55.5514 66.5653 55.4851 66.532 55.3944 66.503C55.3044 66.4748 55.1923 66.4476 55.075 66.4188C53.617 66.0744 52.2003 65.7759 50.8251 65.523C38.4475 63.2474 29.4203 64.6765 23.7435 69.8104C18.0667 74.9442 15.7402 83.7828 16.7642 96.3261C16.8779 97.7198 17.0331 99.1592 17.2296 100.644Z" fill="#303030"/>
<path d="M54.8025 67.1167C55.1299 67.0541 55.4573 66.9914 55.7847 66.9288C56.0943 66.5947 56.3902 66.2632 56.6724 65.9343C59.6167 62.5022 61.0614 59.3569 61.0066 56.4985C60.9669 54.4268 59.5225 52.6238 56.6734 51.0895C56.2968 50.8867 55.8955 50.6885 55.4698 50.4951C55.1424 50.5577 54.815 50.6203 54.4876 50.683C54.0723 51.0373 53.6816 51.387 53.3154 51.7319C50.5457 54.3411 49.1807 56.6815 49.2204 58.7533C49.2751 61.6117 50.8295 64.1832 53.8833 66.4678C54.1759 66.6868 54.4823 66.9031 54.8025 67.1167Z" fill="#303030"/>
<path d="M55.4993 67.8872C55.5944 67.5678 55.6895 67.2483 55.7847 66.9288C56.1482 66.6542 56.5076 66.393 56.8631 66.1452C60.573 63.5597 63.8472 62.4373 66.6857 62.7782C68.743 63.0253 70.3922 64.6431 71.6333 67.6316C71.7974 68.0267 71.9543 68.4457 72.1041 68.8888C72.009 69.2082 71.9139 69.5277 71.8188 69.8472C71.4246 70.2249 71.0376 70.5786 70.6577 70.9084C67.7841 73.4027 65.3187 74.5263 63.2613 74.2792C60.4228 73.9383 58.02 72.1342 56.0528 68.8668C55.8643 68.5537 55.6798 68.2272 55.4993 67.8872Z" fill="#303030"/>
<path d="M85.0018 68.9748C85.0511 69.0851 85.0978 69.1906 85.1415 69.2741C85.1862 69.3582 85.2308 69.4176 85.2917 69.4555C85.3526 69.4933 85.4256 69.5071 85.5208 69.5099C85.6151 69.5122 85.7303 69.5075 85.851 69.5029C87.3474 69.432 88.7915 69.3285 90.1832 69.1925C102.709 67.9682 110.992 64.1062 115.034 57.6065C119.076 51.1068 118.876 41.9694 114.434 30.1942C113.941 28.8859 113.395 27.545 112.796 26.1715C112.747 26.0612 112.701 25.9558 112.657 25.8722C112.612 25.7881 112.567 25.7287 112.507 25.6909C112.446 25.653 112.373 25.6393 112.278 25.6364C112.183 25.6341 112.068 25.6388 111.947 25.6434C110.451 25.7143 109.007 25.8178 107.615 25.9538C95.0897 27.1781 86.8062 31.0401 82.7643 37.5398C78.7225 44.0395 78.9225 53.1769 83.3641 64.9521C83.8576 66.2604 84.4035 67.6014 85.0018 68.9748Z" fill="#303030"/>
<path d="M111.878 26.3899C112.175 26.2395 112.473 26.089 112.77 25.9386C112.976 25.532 113.169 25.1318 113.349 24.7379C115.234 20.6272 115.755 17.2055 114.915 14.473C114.306 12.4924 112.42 11.1574 109.259 10.4679C108.841 10.3767 108.4 10.2969 107.938 10.2283C107.64 10.3787 107.343 10.5292 107.045 10.6796C106.744 11.1347 106.465 11.5785 106.208 12.011C104.264 15.2825 103.597 17.9086 104.207 19.8891C105.047 22.6217 107.25 24.6652 110.815 26.0196C111.157 26.1493 111.511 26.2728 111.878 26.3899Z" fill="#303030"/>
<path d="M112.76 26.9385C112.763 26.6052 112.767 26.2719 112.77 25.9386C113.044 25.5744 113.317 25.2242 113.591 24.8881C116.444 21.3801 119.282 19.3987 122.105 18.944C124.151 18.6145 126.182 19.715 128.199 22.2457C128.465 22.5802 128.732 22.9398 128.998 23.3243C128.994 23.6577 128.991 23.991 128.988 24.3243C128.713 24.796 128.438 25.2427 128.164 25.6644C126.089 28.8542 124.029 30.6139 121.983 30.9434C119.161 31.3981 116.354 30.3262 113.562 27.7276C113.295 27.4786 113.027 27.2156 112.76 26.9385Z" fill="#303030"/>
</svg>
