<svg width="188" height="228" viewBox="0 0 188 228" fill="none" xmlns="http://www.w3.org/2000/svg">
<path d="M40.8818 115.539C40.8424 115.653 40.8044 115.762 40.7792 115.853C40.7543 115.945 40.7463 116.019 40.7649 116.088C40.7834 116.157 40.8273 116.217 40.8948 116.284C40.9621 116.35 41.0494 116.426 41.1406 116.505C42.2813 117.476 43.406 118.388 44.5148 119.24C54.4935 126.908 63.1794 129.752 70.5725 127.771C77.9657 125.79 84.066 118.985 88.8735 107.354C89.4077 106.062 89.9259 104.71 90.4281 103.298C90.4676 103.184 90.5056 103.075 90.5307 102.984C90.5556 102.893 90.5637 102.819 90.5451 102.749C90.5265 102.68 90.4827 102.62 90.4152 102.553C90.3479 102.487 90.2606 102.412 90.1693 102.332C89.0287 101.361 87.9039 100.45 86.7952 99.5976C76.8165 91.9289 68.1306 89.0851 60.7374 91.0661C53.3443 93.0471 47.244 99.8529 42.4364 111.483C41.9023 112.776 41.3841 114.128 40.8818 115.539Z" fill="#303030"/>
<path d="M89.6085 102.83C89.9284 102.923 90.2484 103.017 90.5683 103.11C90.9962 102.954 91.4107 102.794 91.8118 102.63C95.9971 100.917 98.7169 98.7768 99.9714 96.2078C100.881 94.3458 100.417 92.0826 98.5809 89.4181C98.3381 89.0658 98.0714 88.7065 97.7806 88.3402C97.4607 88.2467 97.1407 88.1532 96.8208 88.0597C96.2896 88.1857 95.7825 88.3187 95.2993 88.4588C91.6446 89.5182 89.3627 90.9789 88.4534 92.8409C87.199 95.4099 87.4099 98.4072 89.0862 101.833C89.2468 102.161 89.4209 102.493 89.6085 102.83Z" fill="#303030"/>
<path d="M89.8773 103.833C90.1077 103.592 90.338 103.351 90.5683 103.11C91.017 103.031 91.456 102.963 91.8854 102.904C96.3661 102.295 99.7919 102.789 102.163 104.386C103.881 105.544 104.611 107.736 104.353 110.961C104.319 111.388 104.268 111.832 104.199 112.295C103.969 112.536 103.739 112.777 103.508 113.018C102.985 113.174 102.48 113.313 101.991 113.433C98.2964 114.343 95.5898 114.219 93.8714 113.061C91.5005 111.463 90.1845 108.762 89.9234 104.957C89.8983 104.593 89.883 104.218 89.8773 103.833Z" fill="#303030"/>
<path d="M5.77271 216.172C5.76417 216.292 5.75565 216.407 5.75487 216.502C5.75462 216.597 5.76595 216.67 5.80182 216.732C5.83769 216.794 5.89556 216.841 5.97816 216.888C6.06023 216.935 6.16407 216.985 6.27271 217.038C7.62587 217.681 8.9482 218.27 10.2397 218.806C21.8632 223.631 30.9892 224.13 37.6177 220.303C44.2462 216.476 48.3772 208.323 50.0107 195.844C50.1922 194.458 50.3428 193.018 50.4627 191.525C50.4712 191.404 50.4797 191.289 50.4805 191.195C50.4808 191.1 50.4694 191.026 50.4336 190.964C50.3977 190.902 50.3398 190.855 50.2572 190.808C50.1752 190.762 50.0713 190.712 49.9627 190.659C48.6095 190.016 47.2872 189.426 45.9957 188.89C34.3722 184.066 25.2462 183.567 18.6177 187.394C11.9892 191.221 7.8582 199.373 6.2247 211.852C6.0432 213.238 5.89254 214.678 5.77271 216.172Z" fill="#303030"/>
<path d="M49.5496 191.284C49.8828 191.292 50.2161 191.299 50.5493 191.307C50.9223 191.045 51.2812 190.783 51.6261 190.521C55.2256 187.784 57.2988 185.012 57.8456 182.206C58.2419 180.172 57.2084 178.106 54.7451 176.007C54.4195 175.73 54.0688 175.452 53.6932 175.173C53.3599 175.166 53.0267 175.158 52.6934 175.151C52.213 175.41 51.7575 175.67 51.3271 175.93C48.0711 177.899 46.245 179.901 45.8486 181.935C45.3018 184.741 46.2813 187.581 48.7872 190.457C49.0273 190.732 49.2814 191.008 49.5496 191.284Z" fill="#303030"/>
<path d="M50.069 192.184C50.2291 191.891 50.3892 191.599 50.5493 191.307C50.9624 191.114 51.3687 190.935 51.7683 190.767C55.9385 189.018 59.3754 188.609 62.079 189.538C64.0385 190.212 65.3111 192.14 65.8968 195.323C65.9742 195.743 66.0397 196.186 66.0931 196.651C65.933 196.943 65.7729 197.235 65.6128 197.528C65.1481 197.814 64.6954 198.079 64.2547 198.321C60.9213 200.156 58.2749 200.737 56.3153 200.064C53.6117 199.134 51.6414 196.865 50.4044 193.258C50.2859 192.912 50.1741 192.554 50.069 192.184Z" fill="#303030"/>
<path d="M87.624 164.211C87.5947 164.328 87.5663 164.44 87.5492 164.533C87.5324 164.627 87.5308 164.701 87.5554 164.768C87.5799 164.836 87.6288 164.891 87.7019 164.952C87.7747 165.012 87.8683 165.08 87.9661 165.151C89.187 166.019 90.3869 166.829 91.5657 167.581C102.175 174.351 111.076 176.427 118.268 173.809C125.46 171.191 130.944 163.88 134.72 151.874C135.139 150.54 135.538 149.149 135.915 147.699C135.944 147.582 135.973 147.47 135.99 147.377C136.007 147.283 136.008 147.209 135.984 147.142C135.959 147.074 135.91 147.018 135.837 146.957C135.764 146.897 135.671 146.83 135.573 146.759C134.352 145.891 133.152 145.081 131.973 144.329C121.364 137.559 112.463 135.483 105.271 138.101C98.0788 140.719 92.5948 148.03 88.8193 160.035C88.3998 161.369 88.0014 162.761 87.624 164.211Z" fill="#303030"/>
<path d="M135.058 147.303C135.384 147.369 135.711 147.434 136.038 147.499C136.451 147.306 136.85 147.111 137.235 146.912C141.255 144.842 143.778 142.472 144.804 139.804C145.547 137.87 144.888 135.655 142.827 133.161C142.554 132.831 142.257 132.497 141.936 132.157C141.609 132.092 141.282 132.026 140.955 131.961C140.437 132.133 139.943 132.31 139.474 132.491C135.926 133.865 133.78 135.519 133.036 137.453C132.011 140.122 132.482 143.09 134.45 146.356C134.639 146.669 134.841 146.985 135.058 147.303Z" fill="#303030"/>
<path d="M135.413 148.28C135.621 148.02 135.83 147.759 136.038 147.499C136.478 147.382 136.91 147.275 137.332 147.18C141.743 146.182 145.199 146.375 147.7 147.76C149.512 148.764 150.431 150.883 150.455 154.119C150.458 154.547 150.446 154.994 150.418 155.461C150.209 155.721 150.001 155.981 149.792 156.242C149.285 156.443 148.793 156.625 148.317 156.787C144.716 158.016 142.009 158.128 140.196 157.124C137.695 155.74 136.148 153.163 135.557 149.396C135.5 149.035 135.452 148.663 135.413 148.28Z" fill="#303030"/>
<path d="M128.456 112.344C128.456 112.465 128.455 112.58 128.461 112.675C128.468 112.77 128.484 112.842 128.524 112.901C128.564 112.961 128.625 113.003 128.711 113.045C128.796 113.085 128.903 113.128 129.015 113.173C130.41 113.72 131.77 114.216 133.096 114.661C145.028 118.663 154.166 118.524 160.512 114.244C166.857 109.964 170.409 101.543 171.168 88.9806C171.253 87.5848 171.302 86.1379 171.318 84.6398C171.318 84.519 171.318 84.4037 171.313 84.3096C171.306 84.2146 171.29 84.1422 171.25 84.0827C171.21 84.0232 171.149 83.9809 171.063 83.9393C170.978 83.8987 170.871 83.856 170.759 83.8108C169.364 83.2639 168.004 82.7681 166.678 82.3234C154.746 78.3213 145.608 78.4603 139.262 82.7403C132.917 87.0204 129.365 95.4414 128.606 108.004C128.521 109.399 128.471 110.846 128.456 112.344Z" fill="#303030"/>
<path d="M170.39 84.4635C170.723 84.4477 171.056 84.432 171.389 84.4163C171.743 84.1292 172.083 83.8429 172.408 83.5572C175.808 80.5756 177.683 77.6661 178.033 74.8287C178.286 72.7721 177.111 70.7831 174.508 68.8615C174.163 68.6075 173.794 68.3547 173.4 68.103C173.067 68.1187 172.734 68.1344 172.401 68.1502C171.94 68.4423 171.504 68.7332 171.092 69.0229C167.982 71.2145 166.3 73.3385 166.046 75.395C165.696 78.2325 166.872 80.9979 169.572 83.6912C169.831 83.9493 170.104 84.2067 170.39 84.4635Z" fill="#303030"/>
<path d="M170.971 85.3247C171.111 85.0219 171.25 84.7191 171.389 84.4163C171.788 84.1958 172.181 83.988 172.568 83.793C176.606 81.7576 180.006 81.1093 182.767 81.848C184.769 82.3833 186.173 84.2179 186.979 87.3518C187.086 87.7662 187.182 88.2032 187.268 88.6629C187.129 88.9658 186.989 89.2686 186.85 89.5714C186.406 89.8896 185.973 90.1851 185.55 90.4578C182.353 92.521 179.754 93.2849 177.752 92.7496C174.99 92.0109 172.866 89.8853 171.381 86.3727C171.238 86.0361 171.102 85.6868 170.971 85.3247Z" fill="#303030"/>
<path d="M115.053 54.9157C115.086 55.0318 115.118 55.1428 115.149 55.2317C115.181 55.3213 115.217 55.3863 115.272 55.4324C115.327 55.4786 115.397 55.5025 115.491 55.5187C115.584 55.5344 115.699 55.5459 115.819 55.5585C117.31 55.6998 118.755 55.8014 120.152 55.8634C132.724 56.4216 141.471 53.7691 146.39 47.9059C151.31 42.0426 152.404 32.9686 149.671 20.6839C149.367 19.319 149.016 17.9144 148.618 16.4701C148.585 16.354 148.554 16.243 148.522 16.1541C148.49 16.0645 148.454 15.9995 148.399 15.9534C148.344 15.9072 148.274 15.8833 148.18 15.8671C148.087 15.8514 147.972 15.8399 147.852 15.8273C146.361 15.686 144.916 15.5844 143.519 15.5224C130.947 14.9642 122.201 17.6167 117.281 23.4799C112.361 29.3432 111.267 38.4172 114 50.7019C114.304 52.0668 114.655 53.4714 115.053 54.9157Z" fill="#303030"/>
<path d="M147.678 16.5563C147.993 16.4494 148.309 16.3425 148.625 16.2356C148.886 15.8622 149.134 15.4933 149.368 15.1288C151.814 11.3257 152.814 8.0121 152.369 5.18816C152.045 3.14142 150.368 1.55333 147.335 0.423908C146.934 0.274589 146.51 0.133291 146.061 5.44707e-06C145.746 0.106906 145.43 0.213806 145.114 0.320706C144.751 0.728609 144.412 1.12849 144.097 1.52036C141.711 4.48443 140.679 6.98983 141.002 9.03657C141.448 11.8605 143.34 14.1948 146.678 16.0395C146.998 16.2163 147.331 16.3885 147.678 16.5563Z" fill="#303030"/>
<path d="M148.474 17.2241C148.524 16.8946 148.574 16.5651 148.625 16.2356C148.947 15.9138 149.268 15.6058 149.586 15.3116C152.906 12.2421 155.996 10.6818 158.854 10.6305C160.926 10.5934 162.782 11.9699 164.42 14.7602C164.637 15.1291 164.85 15.5227 165.059 15.941C165.009 16.2705 164.958 16.6 164.908 16.9295C164.569 17.3576 164.234 17.761 163.903 18.1398C161.398 21.0043 159.11 22.4551 157.038 22.4923C154.18 22.5435 151.552 21.0856 149.156 18.1186C148.926 17.8343 148.699 17.5361 148.474 17.2241Z" fill="#303030"/>
</svg>
