<svg width="96" height="106" viewBox="0 0 96 106" fill="none" xmlns="http://www.w3.org/2000/svg">
<path d="M80.0519 3H0V87.0545C0 91.2986 1.61678 95.3639 4.46742 98.3794C7.31806 101.395 11.2111 103.07 15.2531 103.07H80.0519C84.0939 103.07 87.9656 101.373 90.8376 98.3794C93.7095 95.3863 95.305 91.2986 95.305 87.0545V19.0157C95.305 14.7717 93.6882 10.7063 90.8376 7.69079C87.9869 4.67528 84.0939 3 80.0519 3ZM70.7129 92.2144C69.0748 90.3157 68.2239 87.5906 68.1601 84.039H74.8187C74.8612 87.1885 75.9036 88.7521 77.9671 88.7521C79.0095 88.7521 79.7541 88.3948 80.2008 87.7023C80.6263 87.0098 80.839 85.9153 80.839 84.3964C80.839 83.1902 80.5625 82.185 79.9881 81.4032C79.2435 80.4651 78.265 79.728 77.18 79.2812L74.7123 78.0527C72.5211 76.9582 70.9256 75.6403 69.9258 74.1213C68.9685 72.6024 68.5005 70.4804 68.5005 67.7776C68.5005 64.7398 69.3514 62.2827 71.0107 60.384C72.7339 58.4854 75.0739 57.5472 78.0735 57.5472C80.9667 57.5472 83.2004 58.4854 84.7746 60.3393C86.3701 62.2157 87.2211 64.8738 87.2849 68.3584H80.8816C80.9241 67.2192 80.6901 66.08 80.2434 65.0525C79.8817 64.293 79.1797 63.9133 78.1161 63.9133C76.244 63.9133 75.308 65.0748 75.308 67.4202C75.308 68.6041 75.542 69.5199 75.9887 70.2347C76.6482 71.0165 77.4778 71.6196 78.4139 71.977L80.7752 73.0715C83.2217 74.2554 84.9661 75.6849 86.051 77.4049C87.136 79.1249 87.6678 81.4256 87.6678 84.3294C87.6678 87.7916 86.8169 90.4498 85.0512 92.3037C83.3068 94.1577 80.9029 95.0959 77.7969 95.0959C74.691 95.0959 72.3509 94.1577 70.6916 92.2591L70.7129 92.2144ZM49.2267 92.2144C47.5887 90.3157 46.7377 87.5906 46.6739 84.039H53.3325C53.375 87.1885 54.4174 88.7521 56.481 88.7521C57.5234 88.7521 58.2679 88.3948 58.6934 87.7023C59.1189 87.0098 59.3316 85.9153 59.3316 84.3964C59.3316 83.1902 59.055 82.185 58.5019 81.4032C57.7574 80.4651 56.7788 79.728 55.6938 79.2812L53.2261 78.0527C51.035 76.9582 49.4395 75.6403 48.4396 74.1213C47.4823 72.6024 47.0143 70.4804 47.0143 67.7776C47.0143 64.7398 47.8652 62.2827 49.5245 60.384C51.2477 58.4854 53.5878 57.5472 56.5873 57.5472C59.4805 57.5472 61.7142 58.4854 63.2672 60.3393C64.884 62.2157 65.7136 64.8738 65.7987 68.3584H59.3954C59.438 67.2192 59.204 66.08 58.7572 65.0525C58.3956 64.293 57.6936 63.9133 56.6299 63.9133C54.7578 63.9133 53.8218 65.0748 53.8218 67.4202C53.8218 68.6041 54.0558 69.5199 54.5025 70.2347C55.162 71.0165 55.9917 71.6196 56.9277 71.977L59.2891 73.0715C61.7355 74.2554 63.4799 75.6849 64.5649 77.4049C65.6498 79.1249 66.1816 81.4256 66.1816 84.3294C66.1816 87.7916 65.3094 90.4498 63.565 92.3037C61.8206 94.1577 59.4167 95.0959 56.3108 95.0959C53.2049 95.0959 50.8648 94.1577 49.2054 92.2591L49.2267 92.2144ZM26.762 92.4601C24.975 90.7401 24.1028 88.1714 24.1028 84.7538V67.9116C24.1028 64.5164 25.0388 61.9476 26.9109 60.183C28.8042 58.4407 31.3145 57.5472 34.3991 57.5472C37.3987 57.5472 39.76 58.4407 41.5045 60.2277C43.2702 62.0146 44.1636 64.6951 44.1636 68.2467V69.5869H37.1221V68.2914C37.1221 66.9288 36.8456 65.9013 36.2712 65.2535C36.0372 64.9185 35.7181 64.6504 35.3564 64.4717C34.9948 64.293 34.6119 64.2037 34.2077 64.226C33.0589 64.226 32.2505 64.6281 31.7825 65.4769C31.2932 66.6384 31.0805 67.8893 31.1443 69.1402V83.771C31.1443 86.8312 32.1654 88.3724 34.2077 88.4171C35.165 88.4171 35.8883 88.0597 36.3776 87.3449C36.9094 86.4291 37.1647 85.3792 37.1221 84.3071V83.2125H44.1636V84.3517C44.1636 86.7195 43.7169 88.7075 42.8447 90.2934C41.9938 91.8347 40.7386 93.0855 39.2069 93.8673C37.5689 94.6938 35.7819 95.0959 33.9737 95.0512C30.9528 95.0512 28.5489 94.1801 26.7833 92.4601H26.762Z" fill="#303030"/>
</svg>
