<svg width="50" height="50" viewBox="0 0 50 50" fill="none" xmlns="http://www.w3.org/2000/svg">
<circle cx="25" cy="25" r="25" fill="white"/>
<path d="M17.7169 37.9287C17.7169 38.1107 17.5129 38.2563 17.2556 38.2563C16.9629 38.2836 16.7589 38.138 16.7589 37.9287C16.7589 37.7468 16.9629 37.6012 17.2202 37.6012C17.4863 37.5739 17.7169 37.7195 17.7169 37.9287ZM14.9581 37.5193C14.896 37.7013 15.0734 37.9105 15.3395 37.9651C15.5702 38.0561 15.8363 37.9651 15.8895 37.7832C15.9427 37.6012 15.7742 37.3919 15.5081 37.3101C15.2774 37.2464 15.0202 37.3373 14.9581 37.5193ZM18.879 37.3646C18.6218 37.4283 18.4444 37.6012 18.471 37.8105C18.4976 37.9924 18.7282 38.1107 18.9944 38.047C19.2516 37.9833 19.429 37.8105 19.4024 37.6285C19.3758 37.4556 19.1363 37.3373 18.879 37.3646ZM24.7161 2.5C12.4121 2.5 3 12.0805 3 24.6998C3 34.7898 9.19194 43.4241 18.0363 46.4629C19.1718 46.6722 19.571 45.9534 19.571 45.362C19.571 44.7979 19.5444 41.6863 19.5444 39.7757C19.5444 39.7757 13.3347 41.1404 12.0306 37.0644C12.0306 37.0644 11.0194 34.4168 9.56452 33.7344C9.56452 33.7344 7.53307 32.306 9.70645 32.3333C9.70645 32.3333 11.9153 32.5153 13.1306 34.6806C15.0734 38.1926 18.329 37.1827 19.5976 36.5822C19.8016 35.1265 20.3782 34.1166 21.0169 33.5161C16.0581 32.952 11.0548 32.215 11.0548 23.4625C11.0548 20.9604 11.729 19.7049 13.1484 18.1036C12.9177 17.5122 12.1637 15.0738 13.379 11.9258C15.2331 11.3344 19.5 14.3824 19.5 14.3824C21.2742 13.8729 23.1815 13.609 25.071 13.609C26.9605 13.609 28.8677 13.8729 30.6419 14.3824C30.6419 14.3824 34.9089 11.3253 36.7629 11.9258C37.9782 15.0829 37.2242 17.5122 36.9936 18.1036C38.4129 19.714 39.2823 20.9695 39.2823 23.4625C39.2823 32.2423 34.0573 32.9429 29.0984 33.5161C29.9145 34.2348 30.6065 35.5996 30.6065 37.7377C30.6065 40.8038 30.5798 44.5978 30.5798 45.3438C30.5798 45.9352 30.9879 46.654 32.1145 46.4447C40.9855 43.4241 47 34.7898 47 24.6998C47 12.0805 37.0202 2.5 24.7161 2.5ZM11.6226 33.88C11.5073 33.971 11.5339 34.1802 11.6847 34.3531C11.8266 34.4987 12.0306 34.5624 12.146 34.4441C12.2613 34.3531 12.2347 34.1438 12.0839 33.971C11.9419 33.8254 11.7379 33.7617 11.6226 33.88ZM10.6645 33.143C10.6024 33.2613 10.6911 33.4069 10.8685 33.4979C11.0105 33.5889 11.1879 33.5616 11.25 33.4342C11.3121 33.3159 11.2234 33.1703 11.046 33.0793C10.8685 33.0248 10.7266 33.0521 10.6645 33.143ZM13.5387 36.382C13.3968 36.5003 13.45 36.7733 13.654 36.9461C13.8581 37.1554 14.1153 37.1827 14.2306 37.0371C14.346 36.9188 14.2927 36.6459 14.1153 36.473C13.9202 36.2637 13.654 36.2365 13.5387 36.382ZM12.5274 35.0446C12.3855 35.1356 12.3855 35.3721 12.5274 35.5814C12.6694 35.7906 12.9089 35.8816 13.0242 35.7906C13.1661 35.6724 13.1661 35.4358 13.0242 35.2265C12.9 35.0173 12.6694 34.9263 12.5274 35.0446Z" fill="#303030"/>
</svg>
