<svg width="100" height="106" viewBox="0 0 100 106" fill="none" xmlns="http://www.w3.org/2000/svg">
<path d="M33.4476 83.5198C33.4476 83.9334 32.9839 84.2643 32.3992 84.2643C31.7339 84.3263 31.2702 83.9954 31.2702 83.5198C31.2702 83.1063 31.7339 82.7754 32.3186 82.7754C32.9234 82.7134 33.4476 83.0443 33.4476 83.5198ZM27.1774 82.5893C27.0363 83.0029 27.4395 83.4785 28.0444 83.6026C28.5686 83.8093 29.1734 83.6026 29.2944 83.189C29.4153 82.7754 29.0323 82.2999 28.4274 82.1138C27.9032 81.969 27.3186 82.1758 27.1774 82.5893ZM36.0887 82.2378C35.504 82.3826 35.1008 82.7754 35.1613 83.251C35.2218 83.6646 35.746 83.9334 36.3508 83.7887C36.9355 83.6439 37.3387 83.251 37.2782 82.8375C37.2177 82.4446 36.6734 82.1758 36.0887 82.2378ZM49.3548 3C21.3911 3 0 24.7739 0 53.4541C0 76.386 14.0726 96.0093 34.1734 102.916C36.754 103.391 37.6613 101.758 37.6613 100.414C37.6613 99.1317 37.6008 92.0598 37.6008 87.7175C37.6008 87.7175 23.4879 90.8192 20.5242 81.5554C20.5242 81.5554 18.2258 75.5382 14.9194 73.9873C14.9194 73.9873 10.3024 70.7409 15.2419 70.8029C15.2419 70.8029 20.2621 71.2165 23.0242 76.1378C27.4395 84.1195 34.8387 81.8243 37.7218 80.4595C38.1855 77.151 39.496 74.8558 40.9476 73.4911C29.6774 72.209 18.3065 70.5341 18.3065 50.6419C18.3065 44.9555 19.8387 42.102 23.0645 38.4626C22.5403 37.1186 20.8266 31.5769 23.5887 24.4223C27.8024 23.0783 37.5 30.0054 37.5 30.0054C41.5323 28.8474 45.8669 28.2478 50.1613 28.2478C54.4556 28.2478 58.7903 28.8474 62.8226 30.0054C62.8226 30.0054 72.5202 23.0576 76.7339 24.4223C79.496 31.5976 77.7823 37.1186 77.2581 38.4626C80.4839 42.1226 82.4597 44.9762 82.4597 50.6419C82.4597 70.5961 70.5847 72.1883 59.3145 73.4911C61.1694 75.1246 62.7419 78.2263 62.7419 83.0856C62.7419 90.0541 62.6814 98.6768 62.6814 100.372C62.6814 101.716 63.6089 103.35 66.1694 102.874C86.3307 96.0093 100 76.386 100 53.4541C100 24.7739 77.3185 3 49.3548 3ZM19.5968 74.3182C19.3347 74.5249 19.3952 75.0005 19.7379 75.3934C20.0605 75.7243 20.5242 75.869 20.7863 75.6002C21.0484 75.3934 20.9879 74.9178 20.6452 74.5249C20.3226 74.1941 19.8589 74.0494 19.5968 74.3182ZM17.4194 72.6433C17.2782 72.9121 17.4798 73.2429 17.8831 73.4497C18.2056 73.6565 18.6089 73.5944 18.75 73.305C18.8911 73.0361 18.6895 72.7053 18.2863 72.4985C17.8831 72.3744 17.5605 72.4365 17.4194 72.6433ZM23.9516 80.0046C23.629 80.2734 23.75 80.8938 24.2137 81.2866C24.6774 81.7622 25.2621 81.8243 25.5242 81.4934C25.7863 81.2246 25.6653 80.6043 25.2621 80.2114C24.8186 79.7358 24.2137 79.6738 23.9516 80.0046ZM21.6532 76.965C21.3306 77.1717 21.3306 77.7094 21.6532 78.1849C21.9758 78.6605 22.5202 78.8673 22.7823 78.6605C23.1048 78.3917 23.1048 77.8541 22.7823 77.3785C22.5 76.9029 21.9758 76.6961 21.6532 76.965Z" fill="#303030"/>
</svg>
