<svg width="101" height="107" viewBox="0 0 101 107" fill="none" xmlns="http://www.w3.org/2000/svg">
<path d="M0 3V103.321H100.321V3H0ZM54.5943 81.2414C54.5943 91.0048 48.8617 95.4611 40.5091 95.4611C32.9626 95.4611 28.596 91.5647 26.3567 86.8397L34.0375 82.2044C35.5154 84.8243 36.859 87.0413 40.106 87.0413C43.1963 87.0413 45.1669 85.832 45.1669 81.1071V49.0626H54.5943V81.2414ZM76.8979 95.4611C68.1422 95.4611 62.4767 91.2959 59.7224 85.832L67.4032 81.3982C69.4186 84.69 72.061 87.1308 76.6963 87.1308C80.5927 87.1308 83.1007 85.1826 83.1007 82.4731C83.1007 79.2485 80.5479 78.1064 76.2261 76.203L73.8748 75.1953C67.0673 72.3066 62.5663 68.6565 62.5663 60.9757C62.5663 53.8995 67.963 48.5251 76.3604 48.5251C82.3618 48.5251 86.6612 50.6077 89.7515 56.0716L82.4066 60.7742C80.7943 57.8855 79.0476 56.7434 76.338 56.7434C73.5837 56.7434 71.837 58.4901 71.837 60.7742C71.837 63.5957 73.5837 64.7377 77.6368 66.5068L79.9881 67.5145C88.0048 70.9406 92.5058 74.4563 92.5058 82.3387C92.5058 90.8033 85.8327 95.4611 76.8979 95.4611Z" fill="#303030"/>
</svg>
