<svg width="120" height="80" viewBox="0 0 120 80" fill="none" xmlns="http://www.w3.org/2000/svg">
<path d="M59.691 3.95712C91.663 3.95712 116.248 20.9633 116.248 39.6418C116.248 58.3204 91.6443 75.3265 59.691 75.3265C27.719 75.3265 3.13378 58.3204 3.13378 39.6418C3.13378 20.9633 27.7377 3.95712 59.691 3.95712ZM59.691 0C26.7304 0 0 17.7364 0 39.6418C0 61.5473 26.7304 79.2836 59.691 79.2836C92.6516 79.2836 119.382 61.5473 119.382 39.6418C119.382 17.7364 92.6516 0 59.691 0ZM40.7018 36.462C39.2282 46.0015 34.0239 45.0122 27.6257 45.0122L30.1813 28.3829C37.2696 28.3829 42.0822 27.4172 40.7018 36.462ZM18.1685 61.8535H25.0143L26.6371 51.3012C34.3037 51.3012 39.0603 52.0078 43.4625 46.8023C48.3311 41.1493 49.5995 31.0916 46.13 26.051C44.3206 23.4129 41.4106 22.1175 37.4561 22.1175H24.2681L18.1685 61.8535ZM52.8079 11.5416H59.6164L57.9935 22.0939C63.8694 22.0939 69.3162 21.5522 71.9463 24.6142C74.707 27.8176 73.3826 31.916 70.3981 51.2541H63.4963C66.3689 32.552 66.9099 30.9974 65.8653 29.5842C64.858 28.218 62.5636 28.5007 57.0236 28.5007L53.5167 51.2541H46.7082L52.8079 11.5416ZM94.1999 36.462C92.7076 46.1428 87.3541 45.0122 81.1238 45.0122L83.6793 28.3829C90.8049 28.3829 95.5802 27.4172 94.1999 36.462ZM71.6665 61.8535H78.531L80.1538 51.3012C88.2121 51.3012 92.6703 51.89 96.9792 46.8023C101.848 41.1493 103.116 31.0916 99.6467 26.051C97.8373 23.4129 94.9274 22.1175 90.9728 22.1175H77.7848L71.6665 61.8535Z" fill="#303030"/>
</svg>
