<svg width="101" height="107" viewBox="0 0 101 107" fill="none" xmlns="http://www.w3.org/2000/svg">
<path d="M9.38133 3.87608C10.393 2.86444 11.9666 2.71457 13.1656 3.5014L35.4404 18.3388C37.1077 19.4441 38.1006 21.3175 38.1006 23.322V32.6141L55.1111 49.6246C61.3495 46.8145 68.9556 47.9573 74.07 53.0904L97.6936 76.714C101.197 80.2173 101.197 85.9124 97.6936 89.4344L86.4344 100.694C82.9312 104.197 77.236 104.197 73.714 100.694L50.0904 77.07C44.9573 71.9368 43.8145 64.3495 46.6246 58.1111L29.6141 41.1006H20.322C18.3175 41.1006 16.4441 40.1077 15.3388 38.4404L0.501399 16.1656C-0.28543 14.9854 -0.135558 13.393 0.87608 12.3813L9.38133 3.87608ZM36.5457 60.7339C35.3654 67.6467 36.9766 74.953 41.454 80.8168L23.6754 98.6141C18.4111 103.878 9.86842 103.878 4.60415 98.6141C-0.660111 93.3498 -0.660111 84.8071 4.60415 79.5429L29.97 54.1582L36.5644 60.7339H36.5457ZM68.0751 5.13126C71.8406 5.13126 75.4563 5.82442 78.7722 7.09833C80.6456 7.81023 80.9828 10.1894 79.5778 11.6132L68.9556 22.2354C68.3935 22.7975 68.0751 23.5656 68.0751 24.3524V32.1083C68.0751 33.7569 69.4239 35.1057 71.0725 35.1057H78.8284C79.6152 35.1057 80.3833 34.7872 80.9454 34.2252L91.5676 23.603C92.9913 22.198 95.3706 22.5352 96.0825 24.4086C97.3564 27.7245 98.0495 31.3402 98.0495 35.1057C98.0495 43.1988 94.8273 50.5238 89.6192 55.9192L80.4208 46.7208C74.2198 40.5386 65.7146 38.1594 57.7339 39.527L47.0929 28.886V23.322L47.0555 22.3853C46.9056 20.0623 46.2312 17.8329 45.0884 15.8471C50.5962 9.29022 58.8392 5.13126 68.0751 5.11253V5.13126Z" fill="#303030"/>
</svg>
