<svg width="101" height="107" viewBox="0 0 101 107" fill="none" xmlns="http://www.w3.org/2000/svg">
<path d="M10.8614 35.6448L31.3908 91.8731C17.0303 84.9154 7.13978 70.1908 7.13978 53.1605C7.13978 46.9107 8.4747 41.0047 10.8614 35.6448ZM79.2051 50.9963C79.2051 45.6769 77.3038 41.9958 75.6655 39.1237C73.4811 35.5841 71.4383 32.5704 71.4383 29.0309C71.4383 25.0666 74.4317 21.3854 78.659 21.3854C78.841 21.3854 79.023 21.4057 79.2253 21.4259C71.5596 14.4075 61.3657 10.1196 50.1605 10.1196C35.1326 10.1196 21.9048 17.8257 14.1987 29.5163C15.21 29.5568 16.1606 29.577 16.9696 29.577C21.4598 29.577 28.4378 29.0309 28.4378 29.0309C30.7638 28.8893 31.0267 32.3075 28.7209 32.5704C28.7209 32.5704 26.3949 32.8334 23.806 32.975L39.4812 79.5757L48.9065 51.3402L42.2117 32.975C39.8857 32.8334 37.7013 32.5704 37.7013 32.5704C35.3753 32.4289 35.6585 28.8893 37.9642 29.0309C37.9642 29.0309 45.0636 29.577 49.2908 29.577C53.781 29.577 60.7589 29.0309 60.7589 29.0309C63.0849 28.8893 63.3479 32.3075 61.0421 32.5704C61.0421 32.5704 58.7161 32.8334 56.1272 32.975L71.681 79.2318L75.9689 64.8916C77.7893 58.9452 79.2051 54.6775 79.2051 50.9963ZM50.9089 56.9226L38.0047 94.4418C41.8678 95.5745 45.9333 96.2015 50.1605 96.2015C55.1766 96.2015 59.9701 95.3318 64.4401 93.7541C64.3187 93.5721 64.2176 93.3698 64.1367 93.1676L50.9089 56.9226ZM87.9225 32.5098C88.1045 33.8851 88.2057 35.3414 88.2057 36.9393C88.2057 41.3081 87.3966 46.2028 84.929 52.3515L71.7821 90.3561C84.5852 82.8928 93.1813 69.0379 93.1813 53.1605C93.1813 45.6769 91.28 38.6382 87.9225 32.5098ZM0 53.1605C0 25.4509 22.4509 3 50.1605 3C77.8702 3 100.321 25.4509 100.321 53.1605C100.321 80.8702 77.8702 103.321 50.1605 103.321C22.4509 103.321 0 80.8702 0 53.1605ZM98.0153 53.1605C98.0153 26.7251 76.5959 5.30577 50.1605 5.30577C23.7251 5.30577 2.30577 26.7251 2.30577 53.1605C2.30577 79.5959 23.7251 101.015 50.1605 101.015C76.5959 101.015 98.0153 79.5959 98.0153 53.1605Z" fill="#303030"/>
</svg>
